<svg xmlns="http://www.w3.org/2000/svg" viewBox="0 0 360 300" fill="none">
  <!-- CAZADORES emblem: geometric hunting eagle + compass shield -->
  <g>
    <!-- Left wing: two straight tower/feather blades with notched bottom -->
    <path d="M24 108 L58 108 L58 192 L48 192 L41 206 L34 192 L24 192 Z" fill="#33422A"/>
    <rect x="37" y="120" width="7" height="56" fill="#E8E6D9"/>
    <path d="M72 108 L106 108 L106 184 L96 184 L89 198 L82 184 L72 184 Z" fill="#33422A"/>
    <rect x="85" y="120" width="7" height="50" fill="#E8E6D9"/>

    <!-- Right wing (mirrored) -->
    <path d="M336 108 L302 108 L302 192 L312 192 L319 206 L326 192 L336 192 Z" fill="#33422A"/>
    <rect x="316" y="120" width="7" height="56" fill="#E8E6D9"/>
    <path d="M288 108 L254 108 L254 184 L264 184 L271 198 L278 184 L288 184 Z" fill="#33422A"/>
    <rect x="268" y="120" width="7" height="50" fill="#E8E6D9"/>

    <!-- Head -->
    <path d="M150 34 C150 20 162 10 180 10 C198 10 210 19 215 32 C222 36 229 44 235 54 L213 54 L180 60 L147 54 L125 54 C130 45 138 38 150 34 Z" fill="#7C7B62"/>
    <circle cx="194" cy="32" r="5" fill="#E8E6D9"/>

    <!-- Shoulders connecting head to shield -->
    <path d="M128 58 L232 58 L232 90 L180 124 L128 90 Z" fill="#7C7B62"/>

    <!-- Shield diamond outline -->
    <path d="M180 76 L242 134 L180 198 L118 134 Z" fill="#E8E6D9"/>

    <!-- Compass / pinwheel cross inside shield (brass) -->
    <g fill="#5B4A30">
      <path d="M180 92 L196 116 L180 116 Z"/>
      <path d="M180 92 L164 116 L180 116 Z"/>
      <path d="M180 176 L196 152 L180 152 Z"/>
      <path d="M180 176 L164 152 L180 152 Z"/>
      <path d="M134 134 L158 118 L158 134 Z"/>
      <path d="M134 134 L158 150 L158 134 Z"/>
      <path d="M226 134 L202 118 L202 134 Z"/>
      <path d="M226 134 L202 150 L202 134 Z"/>
      <rect x="158" y="118" width="44" height="32" fill="#E8E6D9"/>
      <path d="M180 110 L198 128 L180 146 L162 128 Z"/>
      <circle cx="180" cy="128" r="7" fill="#E8E6D9"/>
    </g>

    <!-- Lower body / tail feathers fading to olive -->
    <path d="M138 148 L180 198 L222 148 L222 184 L180 230 L138 184 Z" fill="#9CA37E"/>
    <path d="M150 186 L180 218 L210 186 L210 202 L180 232 L150 202 Z" fill="#B9BFA0"/>
  </g>
</svg>
